<svg xmlns="http://www.w3.org/2000/svg" version="1.1" class="qr-svg " style="width: 100%; height: auto;" viewBox="0 0 49 49">
<defs><style>rect{shape-rendering:crispEdges}</style></defs>
<path class="qr-4 " stroke="transparent" fill="#fff" fill-opacity="1" d="M13 4 h1 v1 h-1Z M15 4 h1 v1 h-1Z M21 4 h1 v1 h-1Z M26 4 h1 v1 h-1Z M28 4 h4 v1 h-4Z M34 4 h1 v1 h-1Z M36 4 h1 v1 h-1Z M13 5 h1 v1 h-1Z M15 5 h2 v1 h-2Z M20 5 h3 v1 h-3Z M24 5 h1 v1 h-1Z M27 5 h3 v1 h-3Z M31 5 h1 v1 h-1Z M33 5 h1 v1 h-1Z M35 5 h1 v1 h-1Z M13 6 h1 v1 h-1Z M15 6 h1 v1 h-1Z M17 6 h2 v1 h-2Z M23 6 h1 v1 h-1Z M25 6 h1 v1 h-1Z M27 6 h2 v1 h-2Z M32 6 h1 v1 h-1Z M34 6 h1 v1 h-1Z M20 7 h3 v1 h-3Z M25 7 h6 v1 h-6Z M32 7 h4 v1 h-4Z M13 8 h4 v1 h-4Z M18 8 h3 v1 h-3Z M24 8 h2 v1 h-2Z M28 8 h1 v1 h-1Z M30 8 h1 v1 h-1Z M34 8 h1 v1 h-1Z M36 8 h1 v1 h-1Z M13 9 h3 v1 h-3Z M17 9 h1 v1 h-1Z M20 9 h2 v1 h-2Z M23 9 h2 v1 h-2Z M27 9 h1 v1 h-1Z M31 9 h4 v1 h-4Z M13 11 h2 v1 h-2Z M19 11 h2 v1 h-2Z M23 11 h1 v1 h-1Z M25 11 h3 v1 h-3Z M29 11 h2 v1 h-2Z M35 11 h2 v1 h-2Z M13 12 h2 v1 h-2Z M17 12 h1 v1 h-1Z M21 12 h1 v1 h-1Z M23 12 h3 v1 h-3Z M27 12 h4 v1 h-4Z M36 12 h1 v1 h-1Z M4 13 h3 v1 h-3Z M8 13 h2 v1 h-2Z M11 13 h4 v1 h-4Z M18 13 h1 v1 h-1Z M20 13 h7 v1 h-7Z M30 13 h3 v1 h-3Z M41 13 h1 v1 h-1Z M43 13 h1 v1 h-1Z M5 14 h2 v1 h-2Z M11 14 h3 v1 h-3Z M17 14 h2 v1 h-2Z M20 14 h1 v1 h-1Z M22 14 h2 v1 h-2Z M25 14 h1 v1 h-1Z M27 14 h2 v1 h-2Z M31 14 h2 v1 h-2Z M34 14 h3 v1 h-3Z M39 14 h3 v1 h-3Z M43 14 h2 v1 h-2Z M8 15 h1 v1 h-1Z M13 15 h1 v1 h-1Z M18 15 h1 v1 h-1Z M23 15 h1 v1 h-1Z M27 15 h1 v1 h-1Z M32 15 h4 v1 h-4Z M37 15 h6 v1 h-6Z M44 15 h1 v1 h-1Z M5 16 h1 v1 h-1Z M7 16 h3 v1 h-3Z M12 16 h1 v1 h-1Z M16 16 h1 v1 h-1Z M21 16 h1 v1 h-1Z M24 16 h1 v1 h-1Z M28 16 h2 v1 h-2Z M31 16 h2 v1 h-2Z M37 16 h1 v1 h-1Z M39 16 h2 v1 h-2Z M44 16 h1 v1 h-1Z M4 17 h4 v1 h-4Z M9 17 h1 v1 h-1Z M12 17 h2 v1 h-2Z M18 17 h1 v1 h-1Z M22 17 h1 v1 h-1Z M24 17 h4 v1 h-4Z M29 17 h1 v1 h-1Z M31 17 h1 v1 h-1Z M34 17 h2 v1 h-2Z M37 17 h5 v1 h-5Z M4 18 h1 v1 h-1Z M6 18 h1 v1 h-1Z M8 18 h1 v1 h-1Z M11 18 h2 v1 h-2Z M22 18 h1 v1 h-1Z M26 18 h2 v1 h-2Z M33 18 h2 v1 h-2Z M37 18 h1 v1 h-1Z M39 18 h2 v1 h-2Z M5 19 h3 v1 h-3Z M9 19 h1 v1 h-1Z M12 19 h1 v1 h-1Z M15 19 h1 v1 h-1Z M17 19 h1 v1 h-1Z M19 19 h5 v1 h-5Z M25 19 h1 v1 h-1Z M27 19 h1 v1 h-1Z M29 19 h3 v1 h-3Z M33 19 h5 v1 h-5Z M42 19 h3 v1 h-3Z M5 20 h1 v1 h-1Z M7 20 h2 v1 h-2Z M11 20 h2 v1 h-2Z M14 20 h1 v1 h-1Z M16 20 h2 v1 h-2Z M19 20 h5 v1 h-5Z M25 20 h1 v1 h-1Z M27 20 h3 v1 h-3Z M33 20 h7 v1 h-7Z M42 20 h3 v1 h-3Z M4 21 h1 v1 h-1Z M8 21 h2 v1 h-2Z M12 21 h2 v1 h-2Z M15 21 h4 v1 h-4Z M20 21 h1 v1 h-1Z M22 21 h2 v1 h-2Z M29 21 h2 v1 h-2Z M33 21 h1 v1 h-1Z M35 21 h2 v1 h-2Z M38 21 h1 v1 h-1Z M40 21 h1 v1 h-1Z M42 21 h1 v1 h-1Z M44 21 h1 v1 h-1Z M4 22 h1 v1 h-1Z M7 22 h2 v1 h-2Z M13 22 h2 v1 h-2Z M17 22 h1 v1 h-1Z M21 22 h3 v1 h-3Z M25 22 h1 v1 h-1Z M28 22 h1 v1 h-1Z M30 22 h1 v1 h-1Z M32 22 h2 v1 h-2Z M35 22 h1 v1 h-1Z M39 22 h1 v1 h-1Z M41 22 h1 v1 h-1Z M43 22 h2 v1 h-2Z M4 23 h2 v1 h-2Z M7 23 h1 v1 h-1Z M9 23 h1 v1 h-1Z M12 23 h2 v1 h-2Z M15 23 h1 v1 h-1Z M20 23 h3 v1 h-3Z M26 23 h2 v1 h-2Z M29 23 h2 v1 h-2Z M36 23 h1 v1 h-1Z M38 23 h1 v1 h-1Z M40 23 h1 v1 h-1Z M43 23 h2 v1 h-2Z M4 24 h1 v1 h-1Z M7 24 h1 v1 h-1Z M9 24 h1 v1 h-1Z M11 24 h3 v1 h-3Z M16 24 h3 v1 h-3Z M21 24 h4 v1 h-4Z M28 24 h2 v1 h-2Z M31 24 h1 v1 h-1Z M33 24 h2 v1 h-2Z M36 24 h1 v1 h-1Z M39 24 h2 v1 h-2Z M11 25 h1 v1 h-1Z M16 25 h1 v1 h-1Z M18 25 h2 v1 h-2Z M21 25 h1 v1 h-1Z M23 25 h1 v1 h-1Z M27 25 h2 v1 h-2Z M31 25 h4 v1 h-4Z M39 25 h1 v1 h-1Z M42 25 h1 v1 h-1Z M4 26 h1 v1 h-1Z M8 26 h2 v1 h-2Z M11 26 h1 v1 h-1Z M16 26 h2 v1 h-2Z M24 26 h2 v1 h-2Z M28 26 h1 v1 h-1Z M30 26 h2 v1 h-2Z M35 26 h1 v1 h-1Z M37 26 h2 v1 h-2Z M42 26 h1 v1 h-1Z M44 26 h1 v1 h-1Z M4 27 h1 v1 h-1Z M6 27 h2 v1 h-2Z M12 27 h5 v1 h-5Z M20 27 h1 v1 h-1Z M22 27 h1 v1 h-1Z M26 27 h1 v1 h-1Z M28 27 h2 v1 h-2Z M32 27 h3 v1 h-3Z M40 27 h4 v1 h-4Z M4 28 h1 v1 h-1Z M6 28 h2 v1 h-2Z M9 28 h1 v1 h-1Z M12 28 h2 v1 h-2Z M15 28 h1 v1 h-1Z M17 28 h1 v1 h-1Z M19 28 h2 v1 h-2Z M23 28 h2 v1 h-2Z M26 28 h1 v1 h-1Z M29 28 h1 v1 h-1Z M31 28 h2 v1 h-2Z M34 28 h5 v1 h-5Z M40 28 h2 v1 h-2Z M44 28 h1 v1 h-1Z M4 29 h1 v1 h-1Z M6 29 h1 v1 h-1Z M9 29 h1 v1 h-1Z M11 29 h2 v1 h-2Z M18 29 h4 v1 h-4Z M25 29 h1 v1 h-1Z M29 29 h2 v1 h-2Z M33 29 h2 v1 h-2Z M37 29 h1 v1 h-1Z M40 29 h1 v1 h-1Z M43 29 h1 v1 h-1Z M4 30 h1 v1 h-1Z M6 30 h2 v1 h-2Z M9 30 h1 v1 h-1Z M11 30 h3 v1 h-3Z M15 30 h2 v1 h-2Z M18 30 h1 v1 h-1Z M20 30 h3 v1 h-3Z M25 30 h1 v1 h-1Z M27 30 h2 v1 h-2Z M31 30 h2 v1 h-2Z M37 30 h1 v1 h-1Z M42 30 h1 v1 h-1Z M15 31 h1 v1 h-1Z M17 31 h1 v1 h-1Z M20 31 h2 v1 h-2Z M24 31 h1 v1 h-1Z M27 31 h2 v1 h-2Z M30 31 h1 v1 h-1Z M32 31 h2 v1 h-2Z M37 31 h2 v1 h-2Z M40 31 h1 v1 h-1Z M42 31 h2 v1 h-2Z M5 32 h1 v1 h-1Z M7 32 h1 v1 h-1Z M11 32 h1 v1 h-1Z M16 32 h1 v1 h-1Z M20 32 h5 v1 h-5Z M28 32 h1 v1 h-1Z M33 32 h1 v1 h-1Z M37 32 h3 v1 h-3Z M42 32 h3 v1 h-3Z M4 33 h1 v1 h-1Z M6 33 h4 v1 h-4Z M11 33 h1 v1 h-1Z M13 33 h1 v1 h-1Z M15 33 h4 v1 h-4Z M25 33 h1 v1 h-1Z M29 33 h3 v1 h-3Z M33 33 h2 v1 h-2Z M40 33 h5 v1 h-5Z M5 34 h1 v1 h-1Z M7 34 h2 v1 h-2Z M11 34 h1 v1 h-1Z M13 34 h2 v1 h-2Z M19 34 h1 v1 h-1Z M23 34 h2 v1 h-2Z M26 34 h1 v1 h-1Z M29 34 h1 v1 h-1Z M33 34 h1 v1 h-1Z M36 34 h1 v1 h-1Z M40 34 h1 v1 h-1Z M42 34 h3 v1 h-3Z M4 35 h3 v1 h-3Z M11 35 h1 v1 h-1Z M21 35 h2 v1 h-2Z M26 35 h2 v1 h-2Z M29 35 h1 v1 h-1Z M31 35 h2 v1 h-2Z M36 35 h2 v1 h-2Z M40 35 h1 v1 h-1Z M4 36 h1 v1 h-1Z M6 36 h1 v1 h-1Z M8 36 h1 v1 h-1Z M12 36 h5 v1 h-5Z M20 36 h1 v1 h-1Z M22 36 h1 v1 h-1Z M24 36 h1 v1 h-1Z M27 36 h2 v1 h-2Z M30 36 h3 v1 h-3Z M34 36 h2 v1 h-2Z M41 36 h1 v1 h-1Z M43 36 h1 v1 h-1Z M13 37 h2 v1 h-2Z M20 37 h4 v1 h-4Z M25 37 h4 v1 h-4Z M31 37 h2 v1 h-2Z M34 37 h1 v1 h-1Z M42 37 h2 v1 h-2Z M13 38 h1 v1 h-1Z M17 38 h1 v1 h-1Z M19 38 h3 v1 h-3Z M24 38 h2 v1 h-2Z M30 38 h2 v1 h-2Z M33 38 h1 v1 h-1Z M41 38 h1 v1 h-1Z M44 38 h1 v1 h-1Z M18 39 h1 v1 h-1Z M20 39 h1 v1 h-1Z M23 39 h3 v1 h-3Z M27 39 h1 v1 h-1Z M31 39 h1 v1 h-1Z M34 39 h1 v1 h-1Z M42 39 h3 v1 h-3Z M14 40 h1 v1 h-1Z M18 40 h1 v1 h-1Z M20 40 h1 v1 h-1Z M23 40 h3 v1 h-3Z M29 40 h2 v1 h-2Z M32 40 h4 v1 h-4Z M41 40 h1 v1 h-1Z M43 40 h1 v1 h-1Z M15 41 h2 v1 h-2Z M19 41 h1 v1 h-1Z M21 41 h1 v1 h-1Z M23 41 h2 v1 h-2Z M27 41 h2 v1 h-2Z M33 41 h2 v1 h-2Z M37 41 h3 v1 h-3Z M41 41 h1 v1 h-1Z M15 42 h1 v1 h-1Z M17 42 h1 v1 h-1Z M20 42 h1 v1 h-1Z M22 42 h1 v1 h-1Z M28 42 h6 v1 h-6Z M35 42 h4 v1 h-4Z M40 42 h2 v1 h-2Z M43 42 h1 v1 h-1Z M13 43 h1 v1 h-1Z M15 43 h4 v1 h-4Z M21 43 h1 v1 h-1Z M23 43 h3 v1 h-3Z M27 43 h1 v1 h-1Z M32 43 h4 v1 h-4Z M37 43 h1 v1 h-1Z M39 43 h1 v1 h-1Z M42 43 h1 v1 h-1Z M44 43 h1 v1 h-1Z M13 44 h1 v1 h-1Z M17 44 h4 v1 h-4Z M23 44 h2 v1 h-2Z M26 44 h2 v1 h-2Z M29 44 h2 v1 h-2Z M32 44 h2 v1 h-2Z M37 44 h1 v1 h-1Z M39 44 h4 v1 h-4Z M44 44 h1 v1 h-1Z " /><path class="qr-6 " stroke="transparent" fill="#fff" fill-opacity="1" d="M5 5 h5 v1 h-5Z M39 5 h5 v1 h-5Z M5 6 h1 v1 h-1Z M9 6 h1 v1 h-1Z M39 6 h1 v1 h-1Z M43 6 h1 v1 h-1Z M5 7 h1 v1 h-1Z M9 7 h1 v1 h-1Z M39 7 h1 v1 h-1Z M43 7 h1 v1 h-1Z M5 8 h1 v1 h-1Z M9 8 h1 v1 h-1Z M39 8 h1 v1 h-1Z M43 8 h1 v1 h-1Z M5 9 h5 v1 h-5Z M39 9 h5 v1 h-5Z M5 39 h5 v1 h-5Z M5 40 h1 v1 h-1Z M9 40 h1 v1 h-1Z M5 41 h1 v1 h-1Z M9 41 h1 v1 h-1Z M5 42 h1 v1 h-1Z M9 42 h1 v1 h-1Z M5 43 h5 v1 h-5Z " /><path class="qr-8 " stroke="transparent" fill="#fff" fill-opacity="1" d="M11 4 h1 v1 h-1Z M37 4 h1 v1 h-1Z M11 5 h1 v1 h-1Z M37 5 h1 v1 h-1Z M11 6 h1 v1 h-1Z M37 6 h1 v1 h-1Z M11 7 h1 v1 h-1Z M37 7 h1 v1 h-1Z M11 8 h1 v1 h-1Z M37 8 h1 v1 h-1Z M11 9 h1 v1 h-1Z M37 9 h1 v1 h-1Z M11 10 h1 v1 h-1Z M37 10 h1 v1 h-1Z M4 11 h8 v1 h-8Z M37 11 h8 v1 h-8Z M4 37 h8 v1 h-8Z M11 38 h1 v1 h-1Z M11 39 h1 v1 h-1Z M11 40 h1 v1 h-1Z M11 41 h1 v1 h-1Z M11 42 h1 v1 h-1Z M11 43 h1 v1 h-1Z M11 44 h1 v1 h-1Z " /><path class="qr-10 " stroke="transparent" fill="#fff" fill-opacity="1" d="M37 37 h3 v1 h-3Z M37 38 h1 v1 h-1Z M39 38 h1 v1 h-1Z M37 39 h3 v1 h-3Z " /><path class="qr-12 " stroke="transparent" fill="#fff" fill-opacity="1" d="M13 10 h1 v1 h-1Z M15 10 h1 v1 h-1Z M17 10 h1 v1 h-1Z M19 10 h1 v1 h-1Z M21 10 h1 v1 h-1Z M23 10 h1 v1 h-1Z M25 10 h1 v1 h-1Z M27 10 h1 v1 h-1Z M29 10 h1 v1 h-1Z M31 10 h1 v1 h-1Z M33 10 h1 v1 h-1Z M35 10 h1 v1 h-1Z M10 13 h1 v1 h-1Z M10 15 h1 v1 h-1Z M10 17 h1 v1 h-1Z M10 19 h1 v1 h-1Z M10 21 h1 v1 h-1Z M10 23 h1 v1 h-1Z M10 25 h1 v1 h-1Z M10 27 h1 v1 h-1Z M10 29 h1 v1 h-1Z M10 31 h1 v1 h-1Z M10 33 h1 v1 h-1Z M10 35 h1 v1 h-1Z " /><path class="qr-14 " stroke="transparent" fill="#fff" fill-opacity="1" d="M12 4 h1 v1 h-1Z M12 5 h1 v1 h-1Z M12 6 h1 v1 h-1Z M12 7 h1 v1 h-1Z M12 9 h1 v1 h-1Z M4 12 h2 v1 h-2Z M8 12 h2 v1 h-2Z M39 12 h1 v1 h-1Z M41 12 h4 v1 h-4Z M12 39 h1 v1 h-1Z M12 40 h1 v1 h-1Z M12 43 h1 v1 h-1Z M12 44 h1 v1 h-1Z " /><path class="qr-18 " stroke="transparent" fill="#fff" fill-opacity="1" d="M0 0 h49 v1 h-49Z M0 1 h49 v1 h-49Z M0 2 h49 v1 h-49Z M0 3 h49 v1 h-49Z M0 4 h4 v1 h-4Z M45 4 h4 v1 h-4Z M0 5 h4 v1 h-4Z M45 5 h4 v1 h-4Z M0 6 h4 v1 h-4Z M45 6 h4 v1 h-4Z M0 7 h4 v1 h-4Z M45 7 h4 v1 h-4Z M0 8 h4 v1 h-4Z M45 8 h4 v1 h-4Z M0 9 h4 v1 h-4Z M45 9 h4 v1 h-4Z M0 10 h4 v1 h-4Z M45 10 h4 v1 h-4Z M0 11 h4 v1 h-4Z M45 11 h4 v1 h-4Z M0 12 h4 v1 h-4Z M45 12 h4 v1 h-4Z M0 13 h4 v1 h-4Z M45 13 h4 v1 h-4Z M0 14 h4 v1 h-4Z M45 14 h4 v1 h-4Z M0 15 h4 v1 h-4Z M45 15 h4 v1 h-4Z M0 16 h4 v1 h-4Z M45 16 h4 v1 h-4Z M0 17 h4 v1 h-4Z M45 17 h4 v1 h-4Z M0 18 h4 v1 h-4Z M45 18 h4 v1 h-4Z M0 19 h4 v1 h-4Z M45 19 h4 v1 h-4Z M0 20 h4 v1 h-4Z M45 20 h4 v1 h-4Z M0 21 h4 v1 h-4Z M45 21 h4 v1 h-4Z M0 22 h4 v1 h-4Z M45 22 h4 v1 h-4Z M0 23 h4 v1 h-4Z M45 23 h4 v1 h-4Z M0 24 h4 v1 h-4Z M45 24 h4 v1 h-4Z M0 25 h4 v1 h-4Z M45 25 h4 v1 h-4Z M0 26 h4 v1 h-4Z M45 26 h4 v1 h-4Z M0 27 h4 v1 h-4Z M45 27 h4 v1 h-4Z M0 28 h4 v1 h-4Z M45 28 h4 v1 h-4Z M0 29 h4 v1 h-4Z M45 29 h4 v1 h-4Z M0 30 h4 v1 h-4Z M45 30 h4 v1 h-4Z M0 31 h4 v1 h-4Z M45 31 h4 v1 h-4Z M0 32 h4 v1 h-4Z M45 32 h4 v1 h-4Z M0 33 h4 v1 h-4Z M45 33 h4 v1 h-4Z M0 34 h4 v1 h-4Z M45 34 h4 v1 h-4Z M0 35 h4 v1 h-4Z M45 35 h4 v1 h-4Z M0 36 h4 v1 h-4Z M45 36 h4 v1 h-4Z M0 37 h4 v1 h-4Z M45 37 h4 v1 h-4Z M0 38 h4 v1 h-4Z M45 38 h4 v1 h-4Z M0 39 h4 v1 h-4Z M45 39 h4 v1 h-4Z M0 40 h4 v1 h-4Z M45 40 h4 v1 h-4Z M0 41 h4 v1 h-4Z M45 41 h4 v1 h-4Z M0 42 h4 v1 h-4Z M45 42 h4 v1 h-4Z M0 43 h4 v1 h-4Z M45 43 h4 v1 h-4Z M0 44 h4 v1 h-4Z M45 44 h4 v1 h-4Z M0 45 h49 v1 h-49Z M0 46 h49 v1 h-49Z M0 47 h49 v1 h-49Z M0 48 h49 v1 h-49Z " /><path class="qr-512 " stroke="transparent" fill="#000" fill-opacity="1" d="M12 37 h1 v1 h-1Z " /><path class="qr-1024 " stroke="transparent" fill="#000" fill-opacity="1" d="M14 4 h1 v1 h-1Z M16 4 h5 v1 h-5Z M22 4 h4 v1 h-4Z M27 4 h1 v1 h-1Z M32 4 h2 v1 h-2Z M35 4 h1 v1 h-1Z M14 5 h1 v1 h-1Z M17 5 h3 v1 h-3Z M23 5 h1 v1 h-1Z M25 5 h2 v1 h-2Z M30 5 h1 v1 h-1Z M32 5 h1 v1 h-1Z M34 5 h1 v1 h-1Z M36 5 h1 v1 h-1Z M14 6 h1 v1 h-1Z M16 6 h1 v1 h-1Z M19 6 h4 v1 h-4Z M24 6 h1 v1 h-1Z M26 6 h1 v1 h-1Z M29 6 h3 v1 h-3Z M33 6 h1 v1 h-1Z M35 6 h2 v1 h-2Z M13 7 h7 v1 h-7Z M23 7 h2 v1 h-2Z M31 7 h1 v1 h-1Z M36 7 h1 v1 h-1Z M17 8 h1 v1 h-1Z M21 8 h3 v1 h-3Z M26 8 h2 v1 h-2Z M29 8 h1 v1 h-1Z M31 8 h3 v1 h-3Z M35 8 h1 v1 h-1Z M16 9 h1 v1 h-1Z M18 9 h2 v1 h-2Z M22 9 h1 v1 h-1Z M25 9 h2 v1 h-2Z M28 9 h3 v1 h-3Z M35 9 h2 v1 h-2Z M15 11 h4 v1 h-4Z M21 11 h2 v1 h-2Z M24 11 h1 v1 h-1Z M28 11 h1 v1 h-1Z M31 11 h4 v1 h-4Z M15 12 h2 v1 h-2Z M18 12 h3 v1 h-3Z M22 12 h1 v1 h-1Z M26 12 h1 v1 h-1Z M31 12 h5 v1 h-5Z M7 13 h1 v1 h-1Z M15 13 h3 v1 h-3Z M19 13 h1 v1 h-1Z M27 13 h3 v1 h-3Z M33 13 h8 v1 h-8Z M42 13 h1 v1 h-1Z M44 13 h1 v1 h-1Z M4 14 h1 v1 h-1Z M7 14 h3 v1 h-3Z M14 14 h3 v1 h-3Z M19 14 h1 v1 h-1Z M21 14 h1 v1 h-1Z M24 14 h1 v1 h-1Z M26 14 h1 v1 h-1Z M29 14 h2 v1 h-2Z M33 14 h1 v1 h-1Z M37 14 h2 v1 h-2Z M42 14 h1 v1 h-1Z M4 15 h4 v1 h-4Z M9 15 h1 v1 h-1Z M11 15 h2 v1 h-2Z M14 15 h4 v1 h-4Z M19 15 h4 v1 h-4Z M24 15 h3 v1 h-3Z M28 15 h4 v1 h-4Z M36 15 h1 v1 h-1Z M43 15 h1 v1 h-1Z M4 16 h1 v1 h-1Z M6 16 h1 v1 h-1Z M11 16 h1 v1 h-1Z M13 16 h3 v1 h-3Z M17 16 h4 v1 h-4Z M22 16 h2 v1 h-2Z M25 16 h3 v1 h-3Z M30 16 h1 v1 h-1Z M33 16 h4 v1 h-4Z M38 16 h1 v1 h-1Z M41 16 h3 v1 h-3Z M8 17 h1 v1 h-1Z M11 17 h1 v1 h-1Z M14 17 h4 v1 h-4Z M19 17 h3 v1 h-3Z M23 17 h1 v1 h-1Z M28 17 h1 v1 h-1Z M30 17 h1 v1 h-1Z M32 17 h2 v1 h-2Z M36 17 h1 v1 h-1Z M42 17 h3 v1 h-3Z M5 18 h1 v1 h-1Z M7 18 h1 v1 h-1Z M9 18 h1 v1 h-1Z M13 18 h9 v1 h-9Z M23 18 h3 v1 h-3Z M28 18 h5 v1 h-5Z M35 18 h2 v1 h-2Z M38 18 h1 v1 h-1Z M41 18 h4 v1 h-4Z M4 19 h1 v1 h-1Z M8 19 h1 v1 h-1Z M11 19 h1 v1 h-1Z M13 19 h2 v1 h-2Z M16 19 h1 v1 h-1Z M18 19 h1 v1 h-1Z M24 19 h1 v1 h-1Z M26 19 h1 v1 h-1Z M28 19 h1 v1 h-1Z M32 19 h1 v1 h-1Z M38 19 h4 v1 h-4Z M4 20 h1 v1 h-1Z M6 20 h1 v1 h-1Z M9 20 h1 v1 h-1Z M13 20 h1 v1 h-1Z M15 20 h1 v1 h-1Z M18 20 h1 v1 h-1Z M24 20 h1 v1 h-1Z M26 20 h1 v1 h-1Z M30 20 h3 v1 h-3Z M40 20 h2 v1 h-2Z M5 21 h3 v1 h-3Z M11 21 h1 v1 h-1Z M14 21 h1 v1 h-1Z M19 21 h1 v1 h-1Z M21 21 h1 v1 h-1Z M24 21 h5 v1 h-5Z M31 21 h2 v1 h-2Z M34 21 h1 v1 h-1Z M37 21 h1 v1 h-1Z M39 21 h1 v1 h-1Z M41 21 h1 v1 h-1Z M43 21 h1 v1 h-1Z M5 22 h2 v1 h-2Z M9 22 h1 v1 h-1Z M11 22 h2 v1 h-2Z M15 22 h2 v1 h-2Z M18 22 h3 v1 h-3Z M24 22 h1 v1 h-1Z M26 22 h2 v1 h-2Z M29 22 h1 v1 h-1Z M31 22 h1 v1 h-1Z M34 22 h1 v1 h-1Z M36 22 h3 v1 h-3Z M40 22 h1 v1 h-1Z M42 22 h1 v1 h-1Z M6 23 h1 v1 h-1Z M8 23 h1 v1 h-1Z M11 23 h1 v1 h-1Z M14 23 h1 v1 h-1Z M16 23 h4 v1 h-4Z M23 23 h3 v1 h-3Z M28 23 h1 v1 h-1Z M31 23 h5 v1 h-5Z M37 23 h1 v1 h-1Z M39 23 h1 v1 h-1Z M41 23 h2 v1 h-2Z M5 24 h2 v1 h-2Z M8 24 h1 v1 h-1Z M14 24 h2 v1 h-2Z M19 24 h2 v1 h-2Z M25 24 h3 v1 h-3Z M30 24 h1 v1 h-1Z M32 24 h1 v1 h-1Z M35 24 h1 v1 h-1Z M37 24 h2 v1 h-2Z M41 24 h4 v1 h-4Z M4 25 h6 v1 h-6Z M12 25 h4 v1 h-4Z M17 25 h1 v1 h-1Z M20 25 h1 v1 h-1Z M22 25 h1 v1 h-1Z M24 25 h3 v1 h-3Z M29 25 h2 v1 h-2Z M35 25 h4 v1 h-4Z M40 25 h2 v1 h-2Z M43 25 h2 v1 h-2Z M5 26 h3 v1 h-3Z M12 26 h4 v1 h-4Z M18 26 h6 v1 h-6Z M26 26 h2 v1 h-2Z M29 26 h1 v1 h-1Z M32 26 h3 v1 h-3Z M36 26 h1 v1 h-1Z M39 26 h3 v1 h-3Z M43 26 h1 v1 h-1Z M5 27 h1 v1 h-1Z M8 27 h2 v1 h-2Z M11 27 h1 v1 h-1Z M17 27 h3 v1 h-3Z M21 27 h1 v1 h-1Z M23 27 h3 v1 h-3Z M27 27 h1 v1 h-1Z M30 27 h2 v1 h-2Z M35 27 h5 v1 h-5Z M44 27 h1 v1 h-1Z M5 28 h1 v1 h-1Z M8 28 h1 v1 h-1Z M11 28 h1 v1 h-1Z M14 28 h1 v1 h-1Z M16 28 h1 v1 h-1Z M18 28 h1 v1 h-1Z M21 28 h2 v1 h-2Z M25 28 h1 v1 h-1Z M27 28 h2 v1 h-2Z M30 28 h1 v1 h-1Z M33 28 h1 v1 h-1Z M39 28 h1 v1 h-1Z M42 28 h2 v1 h-2Z M5 29 h1 v1 h-1Z M7 29 h2 v1 h-2Z M13 29 h5 v1 h-5Z M22 29 h3 v1 h-3Z M26 29 h3 v1 h-3Z M31 29 h2 v1 h-2Z M35 29 h2 v1 h-2Z M38 29 h2 v1 h-2Z M41 29 h2 v1 h-2Z M44 29 h1 v1 h-1Z M5 30 h1 v1 h-1Z M8 30 h1 v1 h-1Z M14 30 h1 v1 h-1Z M17 30 h1 v1 h-1Z M19 30 h1 v1 h-1Z M23 30 h2 v1 h-2Z M26 30 h1 v1 h-1Z M29 30 h2 v1 h-2Z M33 30 h4 v1 h-4Z M38 30 h4 v1 h-4Z M43 30 h2 v1 h-2Z M4 31 h6 v1 h-6Z M11 31 h4 v1 h-4Z M16 31 h1 v1 h-1Z M18 31 h2 v1 h-2Z M22 31 h2 v1 h-2Z M25 31 h2 v1 h-2Z M29 31 h1 v1 h-1Z M31 31 h1 v1 h-1Z M34 31 h3 v1 h-3Z M39 31 h1 v1 h-1Z M41 31 h1 v1 h-1Z M44 31 h1 v1 h-1Z M4 32 h1 v1 h-1Z M6 32 h1 v1 h-1Z M8 32 h2 v1 h-2Z M12 32 h4 v1 h-4Z M17 32 h3 v1 h-3Z M25 32 h3 v1 h-3Z M29 32 h4 v1 h-4Z M34 32 h3 v1 h-3Z M40 32 h2 v1 h-2Z M5 33 h1 v1 h-1Z M12 33 h1 v1 h-1Z M14 33 h1 v1 h-1Z M19 33 h6 v1 h-6Z M26 33 h3 v1 h-3Z M32 33 h1 v1 h-1Z M35 33 h5 v1 h-5Z M4 34 h1 v1 h-1Z M6 34 h1 v1 h-1Z M9 34 h1 v1 h-1Z M12 34 h1 v1 h-1Z M15 34 h4 v1 h-4Z M20 34 h3 v1 h-3Z M25 34 h1 v1 h-1Z M27 34 h2 v1 h-2Z M30 34 h3 v1 h-3Z M34 34 h2 v1 h-2Z M37 34 h3 v1 h-3Z M41 34 h1 v1 h-1Z M7 35 h3 v1 h-3Z M12 35 h9 v1 h-9Z M23 35 h3 v1 h-3Z M28 35 h1 v1 h-1Z M30 35 h1 v1 h-1Z M33 35 h3 v1 h-3Z M38 35 h2 v1 h-2Z M41 35 h4 v1 h-4Z M5 36 h1 v1 h-1Z M7 36 h1 v1 h-1Z M9 36 h1 v1 h-1Z M11 36 h1 v1 h-1Z M17 36 h3 v1 h-3Z M21 36 h1 v1 h-1Z M23 36 h1 v1 h-1Z M25 36 h2 v1 h-2Z M29 36 h1 v1 h-1Z M33 36 h1 v1 h-1Z M42 36 h1 v1 h-1Z M44 36 h1 v1 h-1Z M15 37 h5 v1 h-5Z M24 37 h1 v1 h-1Z M29 37 h2 v1 h-2Z M33 37 h1 v1 h-1Z M35 37 h1 v1 h-1Z M41 37 h1 v1 h-1Z M44 37 h1 v1 h-1Z M14 38 h3 v1 h-3Z M18 38 h1 v1 h-1Z M22 38 h2 v1 h-2Z M26 38 h4 v1 h-4Z M32 38 h1 v1 h-1Z M34 38 h2 v1 h-2Z M42 38 h2 v1 h-2Z M13 39 h5 v1 h-5Z M19 39 h1 v1 h-1Z M21 39 h2 v1 h-2Z M26 39 h1 v1 h-1Z M28 39 h3 v1 h-3Z M32 39 h2 v1 h-2Z M35 39 h1 v1 h-1Z M41 39 h1 v1 h-1Z M13 40 h1 v1 h-1Z M15 40 h3 v1 h-3Z M19 40 h1 v1 h-1Z M21 40 h2 v1 h-2Z M26 40 h3 v1 h-3Z M31 40 h1 v1 h-1Z M42 40 h1 v1 h-1Z M44 40 h1 v1 h-1Z M13 41 h2 v1 h-2Z M17 41 h2 v1 h-2Z M20 41 h1 v1 h-1Z M22 41 h1 v1 h-1Z M25 41 h2 v1 h-2Z M29 41 h4 v1 h-4Z M35 41 h2 v1 h-2Z M40 41 h1 v1 h-1Z M42 41 h3 v1 h-3Z M13 42 h2 v1 h-2Z M16 42 h1 v1 h-1Z M18 42 h2 v1 h-2Z M21 42 h1 v1 h-1Z M23 42 h5 v1 h-5Z M34 42 h1 v1 h-1Z M39 42 h1 v1 h-1Z M42 42 h1 v1 h-1Z M44 42 h1 v1 h-1Z M14 43 h1 v1 h-1Z M19 43 h2 v1 h-2Z M22 43 h1 v1 h-1Z M26 43 h1 v1 h-1Z M28 43 h4 v1 h-4Z M36 43 h1 v1 h-1Z M38 43 h1 v1 h-1Z M40 43 h2 v1 h-2Z M43 43 h1 v1 h-1Z M14 44 h3 v1 h-3Z M21 44 h2 v1 h-2Z M25 44 h1 v1 h-1Z M28 44 h1 v1 h-1Z M31 44 h1 v1 h-1Z M34 44 h3 v1 h-3Z M38 44 h1 v1 h-1Z M43 44 h1 v1 h-1Z " /><path class="qr-1536 " stroke="transparent" fill="#000" fill-opacity="1" d="M4 4 h7 v1 h-7Z M38 4 h7 v1 h-7Z M4 5 h1 v1 h-1Z M10 5 h1 v1 h-1Z M38 5 h1 v1 h-1Z M44 5 h1 v1 h-1Z M4 6 h1 v1 h-1Z M10 6 h1 v1 h-1Z M38 6 h1 v1 h-1Z M44 6 h1 v1 h-1Z M4 7 h1 v1 h-1Z M10 7 h1 v1 h-1Z M38 7 h1 v1 h-1Z M44 7 h1 v1 h-1Z M4 8 h1 v1 h-1Z M10 8 h1 v1 h-1Z M38 8 h1 v1 h-1Z M44 8 h1 v1 h-1Z M4 9 h1 v1 h-1Z M10 9 h1 v1 h-1Z M38 9 h1 v1 h-1Z M44 9 h1 v1 h-1Z M4 10 h7 v1 h-7Z M38 10 h7 v1 h-7Z M4 38 h7 v1 h-7Z M4 39 h1 v1 h-1Z M10 39 h1 v1 h-1Z M4 40 h1 v1 h-1Z M10 40 h1 v1 h-1Z M4 41 h1 v1 h-1Z M10 41 h1 v1 h-1Z M4 42 h1 v1 h-1Z M10 42 h1 v1 h-1Z M4 43 h1 v1 h-1Z M10 43 h1 v1 h-1Z M4 44 h7 v1 h-7Z " /><path class="qr-2560 " stroke="transparent" fill="#000" fill-opacity="1" d="M36 36 h5 v1 h-5Z M36 37 h1 v1 h-1Z M40 37 h1 v1 h-1Z M36 38 h1 v1 h-1Z M38 38 h1 v1 h-1Z M40 38 h1 v1 h-1Z M36 39 h1 v1 h-1Z M40 39 h1 v1 h-1Z M36 40 h5 v1 h-5Z " /><path class="qr-3072 " stroke="transparent" fill="#000" fill-opacity="1" d="M12 10 h1 v1 h-1Z M14 10 h1 v1 h-1Z M16 10 h1 v1 h-1Z M18 10 h1 v1 h-1Z M20 10 h1 v1 h-1Z M22 10 h1 v1 h-1Z M24 10 h1 v1 h-1Z M26 10 h1 v1 h-1Z M28 10 h1 v1 h-1Z M30 10 h1 v1 h-1Z M32 10 h1 v1 h-1Z M34 10 h1 v1 h-1Z M36 10 h1 v1 h-1Z M10 12 h1 v1 h-1Z M10 14 h1 v1 h-1Z M10 16 h1 v1 h-1Z M10 18 h1 v1 h-1Z M10 20 h1 v1 h-1Z M10 22 h1 v1 h-1Z M10 24 h1 v1 h-1Z M10 26 h1 v1 h-1Z M10 28 h1 v1 h-1Z M10 30 h1 v1 h-1Z M10 32 h1 v1 h-1Z M10 34 h1 v1 h-1Z M10 36 h1 v1 h-1Z " /><path class="qr-3584 " stroke="transparent" fill="#000" fill-opacity="1" d="M12 8 h1 v1 h-1Z M12 11 h1 v1 h-1Z M6 12 h2 v1 h-2Z M11 12 h2 v1 h-2Z M37 12 h2 v1 h-2Z M40 12 h1 v1 h-1Z M12 38 h1 v1 h-1Z M12 41 h1 v1 h-1Z M12 42 h1 v1 h-1Z " /><path class="qr-5632 " stroke="transparent" fill="#000" fill-opacity="1" d="M6 6 h3 v1 h-3Z M40 6 h3 v1 h-3Z M6 7 h3 v1 h-3Z M40 7 h3 v1 h-3Z M6 8 h3 v1 h-3Z M40 8 h3 v1 h-3Z M6 40 h3 v1 h-3Z M6 41 h3 v1 h-3Z M6 42 h3 v1 h-3Z " /></svg>
